<?xml version="1.0" encoding="UTF-8" standalone="no"?>
<svg
   xmlns:dc="http://purl.org/dc/elements/1.1/"
   xmlns:cc="http://creativecommons.org/ns#"
   xmlns:rdf="http://www.w3.org/1999/02/22-rdf-syntax-ns#"
   xmlns:svg="http://www.w3.org/2000/svg"
   xmlns="http://www.w3.org/2000/svg"
   xmlns:sodipodi="http://sodipodi.sourceforge.net/DTD/sodipodi-0.dtd"
   xmlns:inkscape="http://www.inkscape.org/namespaces/inkscape"
   width="36.16605mm"
   height="50.758629mm"
   viewBox="0 0 36.16605 50.758629"
   version="1.1"
   id="svg1447"
   inkscape:version="1.0.2 (e86c8708, 2021-01-15)"
   sodipodi:docname="logo.svg">
  <defs
     id="defs1441" />
  <sodipodi:namedview
     id="base"
     pagecolor="#ffffff"
     bordercolor="#666666"
     borderopacity="1.0"
     inkscape:pageopacity="0.0"
     inkscape:pageshadow="2"
     inkscape:zoom="2.3470943"
     inkscape:cx="83.584211"
     inkscape:cy="64.463894"
     inkscape:document-units="mm"
     inkscape:current-layer="layer1"
     inkscape:document-rotation="0"
     showgrid="false"
     fit-margin-top="0"
     fit-margin-left="0"
     fit-margin-right="0"
     fit-margin-bottom="0"
     inkscape:window-width="1252"
     inkscape:window-height="847"
     inkscape:window-x="0"
     inkscape:window-y="25"
     inkscape:window-maximized="0" />
  <metadata
     id="metadata1444">
    <rdf:RDF>
      <cc:Work
         rdf:about="">
        <dc:format>image/svg+xml</dc:format>
        <dc:type
           rdf:resource="http://purl.org/dc/dcmitype/StillImage" />
        <dc:title></dc:title>
      </cc:Work>
    </rdf:RDF>
  </metadata>
  <g
     inkscape:label="Layer 1"
     inkscape:groupmode="layer"
     id="layer1"
     transform="translate(-94.553881,-13.174256)">
    <g
       id="g1391"
       style="fill:#00ff00;fill-opacity:1;stroke:#0000ff;stroke-width:5.29167;stroke-miterlimit:4;stroke-dasharray:none;stroke-opacity:1;paint-order:markers stroke fill"
       transform="translate(-37.630169,-98.592929)">
      <path
         id="path1327"
         style="color:#000000;font-style:normal;font-variant:normal;font-weight:normal;font-stretch:normal;font-size:medium;line-height:normal;font-family:sans-serif;font-variant-ligatures:normal;font-variant-position:normal;font-variant-caps:normal;font-variant-numeric:normal;font-variant-alternates:normal;font-variant-east-asian:normal;font-feature-settings:normal;font-variation-settings:normal;text-indent:0;text-align:start;text-decoration:none;text-decoration-line:none;text-decoration-style:solid;text-decoration-color:#000000;letter-spacing:normal;word-spacing:normal;text-transform:none;writing-mode:lr-tb;direction:ltr;text-orientation:mixed;dominant-baseline:auto;baseline-shift:baseline;text-anchor:start;white-space:normal;shape-padding:0;shape-margin:0;inline-size:0;clip-rule:nonzero;display:inline;overflow:visible;visibility:visible;opacity:1;isolation:auto;mix-blend-mode:normal;color-interpolation:sRGB;color-interpolation-filters:linearRGB;solid-color:#000000;solid-opacity:1;vector-effect:none;fill:#00ff00;fill-opacity:1;fill-rule:nonzero;stroke:#0000ff;stroke-width:20;stroke-linecap:round;stroke-linejoin:miter;stroke-miterlimit:4;stroke-dasharray:none;stroke-dashoffset:0;stroke-opacity:1;paint-order:markers stroke fill;color-rendering:auto;image-rendering:auto;shape-rendering:auto;text-rendering:auto;enable-background:accumulate;stop-color:#000000;stop-opacity:1"
         d="m 628.70312,435.34766 c -0.73731,0.0272 -1.48227,0.16597 -2.21484,0.42382 -3.9072,1.37518 -5.95917,5.65726 -4.58398,9.56446 0,0 1.59469,4.55284 3.98632,9.55859 0.0246,0.0514 0.0514,0.1047 0.0762,0.15625 l -84.41016,0.26563 a 7.4999981,7.4999981 0 0 0 -7.47656,7.52539 7.4999981,7.4999981 0 0 0 7.52344,7.47656 l 78.40429,-0.24805 c -2.82251,2.63494 -5.52927,5.75775 -7.5039,9.70703 -1.85247,3.70481 -0.35129,8.21003 3.35351,10.0625 1.04123,0.52058 2.1894,0.79095 3.35352,0.79102 2.84098,3e-4 5.43836,-1.60353 6.70898,-4.14453 1.37864,-2.75727 4.73645,-6.01567 8.7168,-9.13281 3.98035,-3.11714 8.35911,-5.69479 11.85351,-10.31641 2.84629,-3.76595 0.41685,-8.70754 -2.69335,-11.26367 -3.11021,-2.55614 -2.8596,-4.40695 -4.3711,-7.34571 -1.98288,-4.15021 -3.37305,-8.07226 -3.37305,-8.07226 -1.11749,-3.17444 -4.15458,-5.12578 -7.34961,-5.00781 z"
         transform="matrix(0.26458333,0,0,0.26458333,-5.6570433,-0.77141537)" />
      <g
         aria-label="c"
         transform="skewX(-8.660581)"
         id="text1325"
         style="font-style:normal;font-variant:normal;font-weight:normal;font-stretch:normal;font-size:52.25610000000000355px;line-height:1.25;font-family:'Comic Sans MS';-inkscape-font-specification:'Comic Sans MS';fill:#00ff00;fill-opacity:1;stroke:#0000ff;stroke-width:5.29167;stroke-miterlimit:4;stroke-dasharray:none;stroke-opacity:1;paint-order:markers stroke fill">
        <path
           d="m 169.95868,159.87998 q -5.23071,0 -8.72636,-3.16394 -3.67425,-3.31704 -3.67425,-8.75188 0,-5.17968 3.44461,-10.69107 3.82735,-6.12376 8.6243,-6.12376 2.50054,0 5.58793,1.17372 3.9039,1.50543 3.9039,3.67426 0,0.96959 -0.63789,1.73506 -0.63789,0.73996 -1.58197,0.73996 -0.73996,0 -1.3013,-0.43377 -0.53583,-0.45928 -1.04614,-0.89305 -1.50543,-1.19923 -4.92453,-1.19923 -2.6026,0 -5.15417,4.64385 -2.32192,4.26112 -2.32192,7.37403 0,3.36807 2.29641,5.30726 2.14332,1.81161 5.51138,1.81161 1.53095,0 3.26601,-0.8165 l 2.95982,-1.58197 q 0.76547,-0.40825 1.09717,-0.40825 0.94408,0 1.63301,0.76547 0.68892,0.73995 0.68892,1.70955 0,1.86264 -3.92941,3.59771 -3.44462,1.53094 -5.71552,1.53094 z"
           style="font-style:normal;font-variant:normal;font-weight:normal;font-stretch:normal;font-family:'Comic Sans MS';-inkscape-font-specification:'Comic Sans MS';fill:#00ff00;fill-opacity:1;stroke:#0000ff;stroke-width:5.29167;stroke-miterlimit:4;stroke-dasharray:none;stroke-opacity:1;paint-order:markers stroke fill"
           id="path1367" />
      </g>
    </g>
  </g>
</svg>
